# xmcd
#
# Track frame offsets:
#	150
#	14414
#	27541
#	41086
#	55491
#	69863
#	84355
#	100519
#	113945
#	128441
#	143068
#	157295
#	169552
#	182713
#	197309
#	210289
#	224180
#	239490
#	252196
#	263762
#	276456
#	290590
#	307043
#	320229
#	335458
#
# Disc length: 4627 seconds
#
# Revision: 1
# Processed by: cddbd v1.5.2PL0 Copyright (c) Steve Scherf et al.
# Submitted via: EZCDAudioConverter 3.1.7.1
#
DISCID=7a121119
DTITLE=Mississippi Blues Artists - Mississippi Blues Another Journey [CD1]
DYEAR=2001
DGENRE=Blues
TTITLE0=Bo Weavil Jackson - Some Scream High Yellow
TTITLE1=Rube Lacey - Ham Hound Crave
TTITLE2=Bobby Grant - Lonesome Atlanta Blues
TTITLE3=Ramblin' Thomas - No Job Blues
TTITLE4=William Harris - Kitchen Range Blues
TTITLE5=Freddie Spruell - Muddy Water Blues
TTITLE6=Jenny Pope - Mr Postman Blues
TTITLE7=Son House - Walkin' Blues
TTITLE8=J. D. Short - Telephone Arguin' Blues
TTITLE9=Joe McCoy - Preachers Blues
TTITLE10=King Solomon Hill  - Whoopee Blues (Take 2)
TTITLE11=Poor Boy Lofton - Poor Boy Blues
TTITLE12=Robert Wilkins - Old Jim Canan's
TTITLE13=Memphis Minnie - Reachin' Pete
TTITLE14=Bukka White - Po' Boy
TTITLE15=Walter Vincson - Can't I Get A Word In Edgeways
TTITLE16=Muddy Waters - I Be Bound To Write To You
TTITLE17=Johnny Shines - Evil Hearted Woman Blues
TTITLE18=Charlie Booker - Charlie's Boogie Woogie
TTITLE19=Boyd Gilmore - Ramblin' On My Mind
TTITLE20=Tommy Lee Thompson - Highway 80 Blues
TTITLE21=Boy Blue - Joe Lee's Rock
TTITLE22=Rose Hemphill - Rolled And Tumbled
TTITLE23=Forrest City Joe - She Lived Her Life Too Fast
TTITLE24=John Dudley - Po' Boy
EXTD=
EXTT0=
EXTT1=
EXTT2=
EXTT3=
EXTT4=
EXTT5=
EXTT6=
EXTT7=
EXTT8=
EXTT9=
EXTT10=
EXTT11=
EXTT12=
EXTT13=
EXTT14=
EXTT15=
EXTT16=
EXTT17=
EXTT18=
EXTT19=
EXTT20=
EXTT21=
EXTT22=
EXTT23=
EXTT24=
PLAYORDER=
